<?xml version="1.0" encoding="iso-8859-1"?>
<!-- Generator: Adobe Illustrator 19.1.0, SVG Export Plug-In . SVG Version: 6.00 Build 0)  -->
<svg version="1.1" id="Capa_1" xmlns="http://www.w3.org/2000/svg" xmlns:xlink="http://www.w3.org/1999/xlink" x="0px" y="0px"
	 viewBox="0 0 288.531 288.531" style="enable-background:new 0 0 288.531 288.531;" xml:space="preserve">
<g>
	<path d="M234.507,234.809c0-0.604,0-1.207-0.604-1.811l0,0c0-0.604-0.604-1.207-1.207-1.207
		c-0.604-0.604-53.119-64.588-57.948-153.32c9.054-8.451,14.487-19.919,14.487-33.199C189.235,19.919,168.712,0,143.964,0
		c-24.748,0-45.272,20.523-45.272,45.272c0,13.28,5.433,24.749,14.487,33.199c-5.433,89.336-57.344,152.716-57.948,153.32
		c-0.604,0.604-0.604,1.207-0.604,1.207l0,0c0,0.604-0.604,1.207-0.604,1.811l0,0v47.686c0,3.622,2.414,6.036,6.036,6.036h168.41
		c3.622,0,6.036-2.414,6.036-6.036L234.507,234.809L234.507,234.809z M110.765,44.064c0-18.712,15.091-33.199,33.199-33.199
		s33.199,15.091,33.199,33.199c0,10.865-4.829,19.919-12.676,26.559c-12.072,9.054-29.577,9.658-41.046,0
		C115.594,64.587,110.765,54.929,110.765,44.064z M124.648,85.714C124.648,85.714,125.252,85.714,124.648,85.714
		c1.811,0.604,3.018,1.207,4.225,1.811h0.604c4.829,1.811,9.658,2.414,14.487,2.414s10.262-0.604,14.487-2.414h0.604
		c1.207-0.604,2.414-1.207,3.622-1.207h0.604c6.036,69.417,38.028,122.535,53.119,143.662H71.529
		C86.62,207.646,118.612,155.131,124.648,85.714z M222.435,276.459H65.493v-35.614h156.942V276.459z"/>
</g>
<g>
</g>
<g>
</g>
<g>
</g>
<g>
</g>
<g>
</g>
<g>
</g>
<g>
</g>
<g>
</g>
<g>
</g>
<g>
</g>
<g>
</g>
<g>
</g>
<g>
</g>
<g>
</g>
<g>
</g>
</svg>
