<?xml version="1.0" encoding="UTF-8" standalone="no"?>
<!-- Generator: Adobe Illustrator 19.0.0, SVG Export Plug-In . SVG Version: 6.00 Build 0)  -->

<svg
   xmlns:dc="http://purl.org/dc/elements/1.1/"
   xmlns:cc="http://creativecommons.org/ns#"
   xmlns:rdf="http://www.w3.org/1999/02/22-rdf-syntax-ns#"
   xmlns:svg="http://www.w3.org/2000/svg"
   xmlns="http://www.w3.org/2000/svg"
   xmlns:sodipodi="http://sodipodi.sourceforge.net/DTD/sodipodi-0.dtd"
   xmlns:inkscape="http://www.inkscape.org/namespaces/inkscape"
   version="1.1"
   id="Capa_1"
   x="0px"
   y="0px"
   viewBox="0 0 512.01 512.01"
   style="enable-background:new 0 0 512.01 512.01;"
   xml:space="preserve"
   sodipodi:docname="logo.svg"
   inkscape:version="0.92.1 r15371"><metadata
   id="metadata4637"><rdf:RDF><cc:Work
       rdf:about=""><dc:format>image/svg+xml</dc:format><dc:type
         rdf:resource="http://purl.org/dc/dcmitype/StillImage" /><dc:title></dc:title></cc:Work></rdf:RDF></metadata><defs
   id="defs4635">
	
	

		
		
	
		
		
		
		
		
		
			<linearGradient
   id="SVGID_1_"
   gradientUnits="userSpaceOnUse"
   x1="-49.626099"
   y1="650.33893"
   x2="-48.626099"
   y2="650.33893"
   gradientTransform="matrix(120.7926,0,0,-116.3061,6100.1348,75990.195)">
			<stop
   offset="0"
   style="stop-color:#D4E1F4"
   id="stop4501" />
			<stop
   offset="0.1717"
   style="stop-color:#D4E1F4"
   id="stop4503" />
			<stop
   offset="0.2"
   style="stop-color:#D4E1F4"
   id="stop4505" />
			<stop
   offset="0.2001"
   style="stop-color:#DAE4F4"
   id="stop4507" />
			<stop
   offset="0.2007"
   style="stop-color:#EBEBF4"
   id="stop4509" />
			<stop
   offset="0.2014"
   style="stop-color:#F6F1F4"
   id="stop4511" />
			<stop
   offset="0.2023"
   style="stop-color:#FDF4F4"
   id="stop4513" />
			<stop
   offset="0.205"
   style="stop-color:#FFF5F4"
   id="stop4515" />
			<stop
   offset="0.2522"
   style="stop-color:#FFF5F4"
   id="stop4517" />
			<stop
   offset="0.26"
   style="stop-color:#FFF5F4"
   id="stop4519" />
			<stop
   offset="0.26"
   style="stop-color:#D4E1F4"
   id="stop4521" />
			<stop
   offset="0.3974"
   style="stop-color:#D4E1F4"
   id="stop4523" />
			<stop
   offset="0.42"
   style="stop-color:#D4E1F4"
   id="stop4525" />
			<stop
   offset="0.4201"
   style="stop-color:#DAE4F4"
   id="stop4527" />
			<stop
   offset="0.4207"
   style="stop-color:#EBEBF4"
   id="stop4529" />
			<stop
   offset="0.4214"
   style="stop-color:#F6F1F4"
   id="stop4531" />
			<stop
   offset="0.4223"
   style="stop-color:#FDF4F4"
   id="stop4533" />
			<stop
   offset="0.425"
   style="stop-color:#FFF5F4"
   id="stop4535" />
			<stop
   offset="0.4894"
   style="stop-color:#FFF5F4"
   id="stop4537" />
			<stop
   offset="0.5"
   style="stop-color:#FFF5F4"
   id="stop4539" />
			<stop
   offset="0.5"
   style="stop-color:#F9F2F4"
   id="stop4541" />
			<stop
   offset="0.5001"
   style="stop-color:#E8EBF4"
   id="stop4543" />
			<stop
   offset="0.5003"
   style="stop-color:#DDE5F4"
   id="stop4545" />
			<stop
   offset="0.5005"
   style="stop-color:#D6E2F4"
   id="stop4547" />
			<stop
   offset="0.501"
   style="stop-color:#D4E1F4"
   id="stop4549" />
			<stop
   offset="0.7062"
   style="stop-color:#D4E1F4"
   id="stop4551" />
			<stop
   offset="0.74"
   style="stop-color:#D4E1F4"
   id="stop4553" />
			<stop
   offset="0.741"
   style="stop-color:#FFF5F4"
   id="stop4555" />
			<stop
   offset="0.8346"
   style="stop-color:#FFF5F4"
   id="stop4557" />
			<stop
   offset="0.85"
   style="stop-color:#FFF5F4"
   id="stop4559" />
			<stop
   offset="0.851"
   style="stop-color:#D4E1F4"
   id="stop4561" />
		</linearGradient>
		
		
		
		
	
			
			
			
			
			
			
		</defs><sodipodi:namedview
   pagecolor="#ffffff"
   bordercolor="#666666"
   borderopacity="1"
   objecttolerance="10"
   gridtolerance="10"
   guidetolerance="10"
   inkscape:pageopacity="0"
   inkscape:pageshadow="2"
   inkscape:window-width="1280"
   inkscape:window-height="972"
   id="namedview4633"
   showgrid="false"
   showguides="true"
   inkscape:guide-bbox="true"
   inkscape:zoom="0.74119645"
   inkscape:cx="450.85247"
   inkscape:cy="211.08791"
   inkscape:window-x="-8"
   inkscape:window-y="-8"
   inkscape:window-maximized="1"
   inkscape:current-layer="Capa_1" />

<g
   id="g4602">
</g>
<g
   id="g4604">
</g>
<g
   id="g4606">
</g>
<g
   id="g4608">
</g>
<g
   id="g4610">
</g>
<g
   id="g4612">
</g>
<g
   id="g4614">
</g>
<g
   id="g4616">
</g>
<g
   id="g4618">
</g>
<g
   id="g4620">
</g>
<g
   id="g4622">
</g>
<g
   id="g4624">
</g>
<g
   id="g4626">
</g>
<g
   id="g4628">
</g>
<g
   id="g4630">
</g>
<g
   id="g4887"
   transform="rotate(42.944428,314.93185,-141.28748)"><g
     transform="rotate(-66.068612,407.38308,-401.70401)"
     id="g4805"><path
       style="fill:none;stroke:#428dff;stroke-width:8.56062984;stroke-linecap:round;stroke-linejoin:round;stroke-miterlimit:4;stroke-dasharray:none;stroke-opacity:1"
       d="m -303.56324,-19.562965 c 0,0 57.15504,15.8509081 138.33743,13.58672 81.182391,-2.2641882 125.425295,-12.912135 125.425295,-12.912135 12.728606,24.780367 7.117597,51.15361 -6.74585,78.926445 0,0 -23.586719,-15.03091 -118.703205,-14.356325 -102.58092,0.727525 -132.91699,13.007154 -136.28992,13.007154 -13.75258,-19.133619 -30.33618,-44.360897 -2.02375,-78.251859 z"
       id="path4799"
       inkscape:connector-curvature="0"
       sodipodi:nodetypes="czccscc" /><path
       style="fill:none;stroke:#428dff;stroke-width:8.56062984;stroke-linecap:round;stroke-linejoin:round;stroke-miterlimit:4;stroke-dasharray:none;stroke-opacity:1"
       d="m -301.53949,58.688894 c 0,0 20.94596,-10.270007 15.51546,-26.983399 l -4.04752,-22.2613051 c 0,0 27.64862,11.2288091 114.67946,10.7933601 78.794821,-0.394241 123.449046,-11.4679451 123.449046,-11.4679451 0,0 -10.301755,8.3594021 -4.722095,23.6104751 l 10.118774,27.657985"
       id="path4801"
       inkscape:connector-curvature="0"
       sodipodi:nodetypes="cccscsc" /></g><g
     transform="translate(304.91242,-62.061819)"
     id="g4879"><path
       style="fill:#428dff;fill-opacity:1"
       d="m 236.32279,78.622579 c -0.13046,-0.08047 -0.6091,0.391225 -0.52907,0.524509 l -0.32302,13.852367 -0.64755,27.725945 -0.64756,27.72594 c 0.0169,5.74254 -1.12642,11.42985 -3.36047,16.71999 -2.36379,5.36949 -5.85437,10.1677 -10.23487,14.07109 -5.27506,4.73532 -11.70483,7.9991 -18.64159,9.46178 -1.73677,0.35169 -3.49426,0.58733 -5.26255,0.70413 l -3.97367,0.25574 c -2.01393,0.17866 -3.9923,0.63891 -5.87779,1.36615 -8.81931,3.3107 -14.80826,11.57143 -15.21247,20.98277 l -0.10895,4.09443 -0.19449,8.33744 -0.38969,16.67558 -0.77869,33.35187 -3.11545,133.40679 -1.55808,66.70446 -0.0807,4.09596 c 0.0839,1.04618 -0.0247,2.11557 0.15962,3.14522 1.05561,10.64239 8.84901,19.3913 19.29878,21.66678 2.07556,0.4474 4.19457,0.65739 6.31816,0.6277 l 8.33882,-0.12229 66.71544,-0.98041 33.35666,-0.48914 8.33881,-0.12229 c 2.79534,-0.0282 5.73571,-0.0735 7.56785,-0.23806 4.23267,-0.46322 8.29985,-1.90155 11.88355,-4.20113 7.32591,-4.6225 12.08871,-12.38719 12.88903,-21.01263 0.21489,-1.78029 0.18795,-5.19364 0.27838,-7.78836 l 0.19449,-8.33744 0.38971,-16.677 1.55737,-66.70375 3.11474,-133.40608 0.77869,-33.35188 c 0.87858,-8.24538 -3.20297,-16.22868 -10.40195,-20.34414 -1.71122,-0.97757 -3.55863,-1.6948 -5.48081,-2.1281 -0.96564,-0.22834 -1.94497,-0.39663 -2.93163,-0.50414 l -3.53007,-0.1263 c -14.76398,-0.12756 -28.08411,-8.89192 -34.04174,-22.40096 -2.15302,-4.93154 -3.25923,-10.25594 -3.24866,-15.63703 l 0.069,-4.32794 1.55471,-66.578602 c 0.0191,-0.982097 0.008,-0.784862 0.008,-0.784862 l 0.007,3e-5 0.002,7.17e-4 7e-4,7.1e-4 c -0.11955,0.0115 0.26374,0.0047 -0.26305,0.0017 l -2.07905,0.0306 -16.63661,0.244754 -33.27109,0.487396 -0.25068,-17.064439 33.44151,-0.48878 16.72147,-0.244386 2.08965,-0.02984 c 1.30186,-0.01487 2.60172,0.104604 3.87909,0.35621 7.00692,1.440323 12.33288,7.160596 13.2702,14.253466 0.14295,1.118565 0.1918,2.24733 0.14591,3.37427 l -1.5565,66.828206 -0.0647,4.00976 c -0.008,1.00053 0.0599,2.00068 0.20484,2.99056 0.23687,1.96327 0.77165,3.87762 1.58693,5.67863 1.59657,3.61319 4.19815,6.6905 7.4952,8.86571 3.33738,2.16903 7.22568,3.33846 11.20517,3.37125 7.01803,-0.1464 13.94879,1.57079 20.08735,4.97454 6.29478,3.57979 11.43231,8.88841 14.80366,15.29744 1.63087,3.20321 2.82245,6.61242 3.54189,10.13483 0.61412,3.34943 0.84968,6.75732 0.70484,10.15933 l -0.77868,33.35187 -3.11404,133.4068 -1.55808,66.70445 -0.3897,16.67558 -0.19449,8.33744 c -0.11535,2.96019 -0.009,5.11876 -0.33967,8.87705 -1.97968,21.33989 -18.69099,38.34644 -39.99165,40.70012 -3.71158,0.31132 -6.33413,0.28229 -9.09844,0.32901 l -8.33952,0.12299 -33.35666,0.48915 -66.71474,0.9797 -8.34023,0.1237 c -3.44031,0.0466 -6.87468,-0.29705 -10.23739,-1.02439 -17.61438,-3.8777 -30.75663,-18.61287 -32.603,-36.55396 -0.17499,-1.72046 -0.25873,-3.4483 -0.24982,-5.17786 l 0.0834,-4.24232 1.55808,-66.70304 3.11474,-133.4075 0.77869,-33.35188 0.38828,-16.67559 0.19449,-8.33743 0.11383,-4.2429 c 0.62432,-16.31535 10.97212,-30.66455 26.25508,-36.40802 3.31264,-1.26483 6.78239,-2.06864 10.31298,-2.38782 l 4.34857,-0.28664 c 1.0065,-0.0628 2.00692,-0.19284 2.99561,-0.39009 4.0003,-0.85243 7.70668,-2.74276 10.74569,-5.48098 2.54694,-2.26587 4.58063,-5.05087 5.96168,-8.16751 1.36328,-3.25672 2.02476,-6.76396 1.94176,-10.29353 l 0.64684,-27.72523 0.64755,-27.725946 0.32453,-13.87216 c 0.28548,-9.427414 7.90974,-16.977487 17.33923,-17.171422 z"
       id="path4582"
       inkscape:connector-curvature="0" /><rect
       style="opacity:1;fill:#428dff;fill-opacity:1;stroke:#458fff;stroke-width:5.25376654;stroke-linecap:round;stroke-linejoin:round;stroke-miterlimit:4;stroke-dasharray:none;stroke-opacity:0.99901961;paint-order:stroke fill markers"
       id="rect4807"
       width="118.40438"
       height="35.604115"
       x="202.80281"
       y="46.242104"
       ry="17.802057" /></g></g><g
   id="g4912"
   transform="matrix(0.48714733,0.45372508,-0.3362623,0.36103202,284.08131,12.051368)"><path
     sodipodi:nodetypes="ccccc"
     inkscape:connector-curvature="0"
     id="rect4891"
     d="m 201.51625,-56.759621 h 108.9775 l -20,133.75679 h -68.9775 z"
     style="opacity:1;fill:#428dff;fill-opacity:1;stroke:#458fff;stroke-width:7.02250195;stroke-linecap:round;stroke-linejoin:round;stroke-miterlimit:4;stroke-dasharray:none;stroke-opacity:0.99901961;paint-order:stroke fill markers" /><ellipse
     ry="25.625996"
     rx="57.482994"
     cy="-58.688927"
     cx="256.005"
     id="path4889"
     style="opacity:1;fill:#42a3ff;fill-opacity:1;stroke:#458fff;stroke-width:1.03400803;stroke-linecap:round;stroke-linejoin:round;stroke-miterlimit:4;stroke-dasharray:none;stroke-opacity:0.99901961;paint-order:stroke fill markers" /><ellipse
     ry="13.69437"
     rx="37.706398"
     cy="79.71981"
     cx="255.94171"
     id="path4889-8"
     style="opacity:1;fill:#428dff;fill-opacity:1;stroke:#458fff;stroke-width:0.61219883;stroke-linecap:round;stroke-linejoin:round;stroke-miterlimit:4;stroke-dasharray:none;stroke-opacity:0.99901961;paint-order:stroke fill markers" /></g></svg>