<?xml version="1.0" encoding="UTF-8" standalone="no"?>
<!-- Generator: Adobe Illustrator 19.0.0, SVG Export Plug-In . SVG Version: 6.00 Build 0)  -->

<svg
   xmlns:dc="http://purl.org/dc/elements/1.1/"
   xmlns:cc="http://creativecommons.org/ns#"
   xmlns:rdf="http://www.w3.org/1999/02/22-rdf-syntax-ns#"
   xmlns:svg="http://www.w3.org/2000/svg"
   xmlns="http://www.w3.org/2000/svg"
   xmlns:sodipodi="http://sodipodi.sourceforge.net/DTD/sodipodi-0.dtd"
   xmlns:inkscape="http://www.inkscape.org/namespaces/inkscape"
   version="1.1"
   id="Capa_1"
   x="0px"
   y="0px"
   viewBox="0 0 512.01 512.01"
   style="enable-background:new 0 0 512.01 512.01;"
   xml:space="preserve"
   sodipodi:docname="menu-icons.svg"
   inkscape:version="0.92.1 r15371"
   inkscape:export-filename="D:\Cloud\Dropbox\Projects\Office\Messenger\res\image\png\logo.png"
   inkscape:export-xdpi="72.359413"
   inkscape:export-ydpi="72.359413"><metadata
   id="metadata4637"><rdf:RDF><cc:Work
       rdf:about=""><dc:format>image/svg+xml</dc:format><dc:type
         rdf:resource="http://purl.org/dc/dcmitype/StillImage" /><dc:title></dc:title></cc:Work></rdf:RDF></metadata><defs
   id="defs4635">
	
	

		
		
	
		
		
		
		
		
		
			<linearGradient
   id="SVGID_1_"
   gradientUnits="userSpaceOnUse"
   x1="-49.626099"
   y1="650.33893"
   x2="-48.626099"
   y2="650.33893"
   gradientTransform="matrix(120.7926,0,0,-116.3061,6100.1348,75990.195)">
			<stop
   offset="0"
   style="stop-color:#D4E1F4"
   id="stop4501" />
			<stop
   offset="0.1717"
   style="stop-color:#D4E1F4"
   id="stop4503" />
			<stop
   offset="0.2"
   style="stop-color:#D4E1F4"
   id="stop4505" />
			<stop
   offset="0.2001"
   style="stop-color:#DAE4F4"
   id="stop4507" />
			<stop
   offset="0.2007"
   style="stop-color:#EBEBF4"
   id="stop4509" />
			<stop
   offset="0.2014"
   style="stop-color:#F6F1F4"
   id="stop4511" />
			<stop
   offset="0.2023"
   style="stop-color:#FDF4F4"
   id="stop4513" />
			<stop
   offset="0.205"
   style="stop-color:#FFF5F4"
   id="stop4515" />
			<stop
   offset="0.2522"
   style="stop-color:#FFF5F4"
   id="stop4517" />
			<stop
   offset="0.26"
   style="stop-color:#FFF5F4"
   id="stop4519" />
			<stop
   offset="0.26"
   style="stop-color:#D4E1F4"
   id="stop4521" />
			<stop
   offset="0.3974"
   style="stop-color:#D4E1F4"
   id="stop4523" />
			<stop
   offset="0.42"
   style="stop-color:#D4E1F4"
   id="stop4525" />
			<stop
   offset="0.4201"
   style="stop-color:#DAE4F4"
   id="stop4527" />
			<stop
   offset="0.4207"
   style="stop-color:#EBEBF4"
   id="stop4529" />
			<stop
   offset="0.4214"
   style="stop-color:#F6F1F4"
   id="stop4531" />
			<stop
   offset="0.4223"
   style="stop-color:#FDF4F4"
   id="stop4533" />
			<stop
   offset="0.425"
   style="stop-color:#FFF5F4"
   id="stop4535" />
			<stop
   offset="0.4894"
   style="stop-color:#FFF5F4"
   id="stop4537" />
			<stop
   offset="0.5"
   style="stop-color:#FFF5F4"
   id="stop4539" />
			<stop
   offset="0.5"
   style="stop-color:#F9F2F4"
   id="stop4541" />
			<stop
   offset="0.5001"
   style="stop-color:#E8EBF4"
   id="stop4543" />
			<stop
   offset="0.5003"
   style="stop-color:#DDE5F4"
   id="stop4545" />
			<stop
   offset="0.5005"
   style="stop-color:#D6E2F4"
   id="stop4547" />
			<stop
   offset="0.501"
   style="stop-color:#D4E1F4"
   id="stop4549" />
			<stop
   offset="0.7062"
   style="stop-color:#D4E1F4"
   id="stop4551" />
			<stop
   offset="0.74"
   style="stop-color:#D4E1F4"
   id="stop4553" />
			<stop
   offset="0.741"
   style="stop-color:#FFF5F4"
   id="stop4555" />
			<stop
   offset="0.8346"
   style="stop-color:#FFF5F4"
   id="stop4557" />
			<stop
   offset="0.85"
   style="stop-color:#FFF5F4"
   id="stop4559" />
			<stop
   offset="0.851"
   style="stop-color:#D4E1F4"
   id="stop4561" />
		</linearGradient>
		
		
		
		
	
			
			
			
			
			
			
		</defs><sodipodi:namedview
   pagecolor="#ffffff"
   bordercolor="#666666"
   borderopacity="1"
   objecttolerance="10"
   gridtolerance="10"
   guidetolerance="10"
   inkscape:pageopacity="0"
   inkscape:pageshadow="2"
   inkscape:window-width="1280"
   inkscape:window-height="972"
   id="namedview4633"
   showgrid="false"
   showguides="true"
   inkscape:guide-bbox="true"
   inkscape:zoom="0.74119645"
   inkscape:cx="86.19282"
   inkscape:cy="211.08791"
   inkscape:window-x="-8"
   inkscape:window-y="-8"
   inkscape:window-maximized="1"
   inkscape:current-layer="Capa_1" />

<g
   id="g4602">
</g>
<g
   id="g4604">
</g>
<g
   id="g4606">
</g>
<g
   id="g4608">
</g>
<g
   id="g4610">
</g>
<g
   id="g4612">
</g>
<g
   id="g4614">
</g>
<g
   id="g4616">
</g>
<g
   id="g4618">
</g>
<g
   id="g4620">
</g>
<g
   id="g4622">
</g>
<g
   id="g4624">
</g>
<g
   id="g4626">
</g>
<g
   id="g4628">
</g>
<g
   id="g4630">
</g>
<g
   id="g5014"
   transform="matrix(0.17825312,0,0,0.17825312,-334.06589,206.005)"
   inkscape:export-filename="D:\Cloud\Dropbox\Projects\Office\Messenger\res\image\png\menu-icons.png"
   inkscape:export-xdpi="72.359413"
   inkscape:export-ydpi="72.359413"><g
     id="g4957">
	<g
   id="content-copy">
		<path
   id="path4954"
   d="m 395.25,0 h -306 c -28.05,0 -51,22.95 -51,51 v 357 h 51 V 51 h 306 z m 76.5,102 h -280.5 c -28.05,0 -51,22.95 -51,51 v 357 c 0,28.05 22.95,51 51,51 h 280.5 c 28.05,0 51,-22.95 51,-51 V 153 c 0,-28.05 -22.95,-51 -51,-51 z m 0,408 H 191.25 V 153 h 280.5 z"
   inkscape:connector-curvature="0" />
	</g>
</g><g
     id="g4959">
</g><g
     id="g4961">
</g><g
     id="g4963">
</g><g
     id="g4965">
</g><g
     id="g4967">
</g><g
     id="g4969">
</g><g
     id="g4971">
</g><g
     id="g4973">
</g><g
     id="g4975">
</g><g
     id="g4977">
</g><g
     id="g4979">
</g><g
     id="g4981">
</g><g
     id="g4983">
</g><g
     id="g4985">
</g><g
     id="g4987">
</g></g><g
   id="g5074"
   transform="matrix(0.2870812,0,0,0.2870812,-161.23055,206.00483)"
   inkscape:export-filename="D:\Cloud\Dropbox\Projects\Office\Messenger\res\image\png\menu-icons.png"
   inkscape:export-xdpi="72.359413"
   inkscape:export-ydpi="72.359413"><g
     id="g5018">
	<path
   id="path5016"
   d="M 336.559,68.611 231.016,174.165 336.559,279.714 c 15.699,15.705 15.699,41.145 0,56.85 -7.844,7.844 -18.128,11.769 -28.407,11.769 -10.296,0 -20.581,-3.919 -28.419,-11.769 L 174.167,231.003 68.609,336.563 c -7.843,7.844 -18.128,11.769 -28.416,11.769 -10.285,0 -20.563,-3.919 -28.413,-11.769 -15.699,-15.698 -15.699,-41.139 0,-56.85 L 117.32,174.164 11.774,68.611 C -3.925,52.912 -3.925,27.466 11.774,11.767 27.47,-3.92 52.901,-3.92 68.603,11.767 L 174.166,117.321 279.721,11.767 c 15.705,-15.687 41.139,-15.687 56.832,0 15.705,15.699 15.705,41.145 0.006,56.844 z"
   inkscape:connector-curvature="0" />
</g><g
     id="g5020">
</g><g
     id="g5022">
</g><g
     id="g5024">
</g><g
     id="g5026">
</g><g
     id="g5028">
</g><g
     id="g5030">
</g><g
     id="g5032">
</g><g
     id="g5034">
</g><g
     id="g5036">
</g><g
     id="g5038">
</g><g
     id="g5040">
</g><g
     id="g5042">
</g><g
     id="g5044">
</g><g
     id="g5046">
</g><g
     id="g5048">
</g></g><g
   id="g5137"
   transform="matrix(0.23437537,0,0,0.23437537,11.604644,206.005)"
   inkscape:export-filename="D:\Cloud\Dropbox\Projects\Office\Messenger\res\image\png\menu-icons.png"
   inkscape:export-xdpi="72.359413"
   inkscape:export-ydpi="72.359413"><g
     id="g5080">
	<path
   id="path5076"
   d="M 213.333,0 C 95.509,0 0,95.514 0,213.333 c 0,117.819 95.509,213.333 213.333,213.333 117.815,0 213.333,-95.514 213.333,-213.333 C 426.666,95.514 331.149,0 213.333,0 Z m 0,372.527 c -87.778,0 -159.194,-71.411 -159.194,-159.194 0,-87.783 71.416,-159.193 159.194,-159.193 87.778,0 159.194,71.415 159.194,159.194 0,87.779 -71.416,159.193 -159.194,159.193 z"
   style="fill:#f05228"
   inkscape:connector-curvature="0" />
	
		<rect
   id="rect5078"
   height="54.139"
   width="392.53"
   style="fill:#f05228"
   transform="matrix(-0.7071,-0.7071,0.7071,-0.7071,213.3327,515.0204)"
   y="186.258"
   x="17.066" />
</g><g
     id="g5082">
</g><g
     id="g5084">
</g><g
     id="g5086">
</g><g
     id="g5088">
</g><g
     id="g5090">
</g><g
     id="g5092">
</g><g
     id="g5094">
</g><g
     id="g5096">
</g><g
     id="g5098">
</g><g
     id="g5100">
</g><g
     id="g5102">
</g><g
     id="g5104">
</g><g
     id="g5106">
</g><g
     id="g5108">
</g><g
     id="g5110">
</g></g><g
   id="g5197"
   transform="matrix(0.20609548,0,0,0.20609548,184.43921,206.00418)"
   inkscape:export-filename="D:\Cloud\Dropbox\Projects\Office\Messenger\res\image\png\menu-icons.png"
   inkscape:export-xdpi="72.359413"
   inkscape:export-ydpi="72.359413"><g
     id="g5141">
	<path
   id="path5139"
   d="M 467.476,146.438 446.031,167.893 317.35,39.23 338.795,17.773 c 23.689,-23.692 62.104,-23.692 85.795,0 l 42.886,42.897 c 23.657,23.679 23.657,62.078 0,85.768 z m -300.243,257.31 c -5.922,5.922 -5.922,15.513 0,21.436 5.925,5.955 15.521,5.955 21.443,0 L 424.59,189.335 403.121,167.878 Z M 60,296.54 c -5.925,5.927 -5.925,15.514 0,21.44 5.922,5.923 15.518,5.923 21.443,0 L 317.35,82.113 295.914,60.67 Z m 278.767,-193 -235.886,235.881 c -11.845,11.822 -11.815,31.041 0,42.886 11.85,11.846 31.038,11.901 42.914,-0.032 L 381.681,146.438 Z M 145.734,446.572 c -7.253,-7.262 -10.749,-16.465 -12.05,-25.948 -3.083,0.476 -6.188,0.919 -9.36,0.919 -16.202,0 -31.419,-6.333 -42.881,-17.795 -11.462,-11.491 -17.77,-26.687 -17.77,-42.887 0,-2.954 0.443,-5.833 0.859,-8.703 -9.803,-1.335 -18.864,-5.629 -25.972,-12.737 -0.682,-0.677 -0.917,-1.596 -1.538,-2.338 L 0,485.216 147.748,448.23 c -0.651,-0.593 -1.388,-1.037 -2.014,-1.658 z"
   inkscape:connector-curvature="0" />
</g><g
     id="g5143">
</g><g
     id="g5145">
</g><g
     id="g5147">
</g><g
     id="g5149">
</g><g
     id="g5151">
</g><g
     id="g5153">
</g><g
     id="g5155">
</g><g
     id="g5157">
</g><g
     id="g5159">
</g><g
     id="g5161">
</g><g
     id="g5163">
</g><g
     id="g5165">
</g><g
     id="g5167">
</g><g
     id="g5169">
</g><g
     id="g5171">
</g></g><g
   id="g5254"
   transform="matrix(1.6666667,0,0,1.6666667,357.27517,206.005)"
   inkscape:export-filename="D:\Cloud\Dropbox\Projects\Office\Messenger\res\image\png\menu-icons.png"
   inkscape:export-xdpi="72.359413"
   inkscape:export-ydpi="72.359413"><path
     id="path5199"
     d="M 51.371,3.146 C 51.168,3.065 46.311,1.149 40.556,1.149 c -3.434,0 -6.47,0.687 -9.024,2.042 C 29.269,4.392 26.199,5 22.407,5 17.099,5 11.865,3.788 10,3.307 V 1 C 10,0.447 9.553,0 9,0 8.447,0 8,0.447 8,1 V 4 C 8,4.014 8.007,4.026 8.008,4.04 8.008,4.052 8,4.062 8,4.074 V 33 34.074 59 c 0,0.553 0.447,1 1,1 0.553,0 1,-0.447 1,-1 V 35.373 C 12.273,35.937 17.243,37 22.407,37 c 4.122,0 7.507,-0.688 10.062,-2.042 2.263,-1.201 4.983,-1.81 8.087,-1.81 5.357,0 10.027,1.836 10.073,1.854 0.309,0.124 0.657,0.086 0.932,-0.102 C 51.835,34.716 52,34.406 52,34.074 v -30 C 52,3.665 51.751,3.298 51.371,3.146 Z"
     inkscape:connector-curvature="0" /><g
     id="g5201">
</g><g
     id="g5203">
</g><g
     id="g5205">
</g><g
     id="g5207">
</g><g
     id="g5209">
</g><g
     id="g5211">
</g><g
     id="g5213">
</g><g
     id="g5215">
</g><g
     id="g5217">
</g><g
     id="g5219">
</g><g
     id="g5221">
</g><g
     id="g5223">
</g><g
     id="g5225">
</g><g
     id="g5227">
</g><g
     id="g5229">
</g></g></svg>