<?xml version="1.0" encoding="UTF-8" standalone="no"?>
<!-- Created with Inkscape (http://www.inkscape.org/) -->
<svg
   xmlns:dc="http://purl.org/dc/elements/1.1/"
   xmlns:cc="http://creativecommons.org/ns#"
   xmlns:rdf="http://www.w3.org/1999/02/22-rdf-syntax-ns#"
   xmlns:svg="http://www.w3.org/2000/svg"
   xmlns="http://www.w3.org/2000/svg"
   xmlns:sodipodi="http://sodipodi.sourceforge.net/DTD/sodipodi-0.dtd"
   xmlns:inkscape="http://www.inkscape.org/namespaces/inkscape"
   width="743.39136"
   height="326.3924"
   id="svg1901"
   sodipodi:version="0.32"
   inkscape:version="0.46+pre4"
   sodipodi:docname="ornament.svg"
   sodipodi:docbase="C:\Important\svg"
   inkscape:output_extension="org.inkscape.output.svg.inkscape"
   version="1.0">
  <defs
     id="defs1903">
    <inkscape:perspective
       sodipodi:type="inkscape:persp3d"
       inkscape:vp_x="0 : 163.1962 : 1"
       inkscape:vp_y="0 : 1000 : 0"
       inkscape:vp_z="743.39136 : 163.1962 : 1"
       inkscape:persp3d-origin="371.69568 : 108.79747 : 1"
       id="perspective3115" />
  </defs>
  <sodipodi:namedview
     id="base"
     pagecolor="#ffffff"
     bordercolor="#666666"
     borderopacity="1.0"
     inkscape:pageopacity="0.0"
     inkscape:pageshadow="2"
     inkscape:zoom="0.8037489"
     inkscape:cx="542.18071"
     inkscape:cy="136.94608"
     inkscape:document-units="px"
     inkscape:current-layer="layer1"
     gridtolerance="10000"
     inkscape:window-width="1280"
     inkscape:window-height="968"
     inkscape:window-x="0"
     inkscape:window-y="22"
     showguides="true"
     inkscape:guide-bbox="true"
     showgrid="false">
    <sodipodi:guide
       orientation="horizontal"
       position="256.29894"
       id="guide2376" />
    <sodipodi:guide
       orientation="vertical"
       position="396.99205"
       id="guide2378" />
    <sodipodi:guide
       orientation="vertical"
       position="647.5903"
       id="guide6334" />
  </sodipodi:namedview>
  <metadata
     id="metadata1906">
    <rdf:RDF>
      <cc:Work
         rdf:about="">
        <dc:format>image/svg+xml</dc:format>
        <dc:type
           rdf:resource="http://purl.org/dc/dcmitype/StillImage" />
      </cc:Work>
    </rdf:RDF>
  </metadata>
  <g
     inkscape:label="Taso 1"
     inkscape:groupmode="layer"
     id="layer1"
     style="opacity:1"
     transform="translate(822.07615,356.94431)">
    <path
       id="path6348"
       d="M -442.7324,-355.95816 C -450.63361,-356.05347 -458.47917,-355.45358 -465.82615,-353.86441 C -491.25223,-348.36468 -511.74553,-336.78213 -534.07615,-322.58316 C -565.82832,-295.42714 -551.16916,-344.90447 -534.51365,-348.92691 C -536.48082,-350.74505 -545.33795,-346.41496 -549.8574,-340.17691 C -555.09112,-345.546 -571.30409,-346.77314 -574.8574,-339.64566 C -583.86144,-321.58479 -552.95696,-336.36906 -572.2949,-338.83316 C -543.29226,-351.1477 -552.26345,-322.58702 -562.57615,-310.27066 C -561.74118,-305.86873 -610.22405,-270.58644 -621.7324,-282.48941 C -605.95869,-307.74601 -631.4091,-268.86574 -633.57615,-283.33316 C -631.72012,-308.79369 -638.22362,-267.57431 -640.01365,-284.17691 C -639.88977,-271.62023 -693.36172,-254.53475 -671.2949,-276.17691 C -647.45544,-300.29855 -655.66449,-332.53825 -684.13865,-348.11441 C -699.83587,-334.45023 -699.38441,-297.32294 -681.38865,-278.89566 C -681.4064,-253.53127 -732.8646,-264.82895 -753.63865,-263.98941 C -745.17952,-277.95287 -740.95118,-328.0992 -717.4824,-326.89566 C -717.41021,-316.2286 -702.8668,-312.06351 -709.0449,-327.48941 C -732.26418,-346.49135 -743.13074,-287.89575 -754.20115,-308.45816 C -765.29217,-312.10275 -761.82744,-303.64717 -750.70115,-302.39566 C -743.77412,-262.26578 -773.60788,-262.0064 -797.57615,-261.73941 C -797.57615,-261.73941 -821.7949,-261.73941 -821.7949,-261.73941 C -821.7949,-261.73941 -822.07615,-234.67691 -822.07615,-234.67691 C -822.07615,-234.67691 -772.88865,-234.70816 -772.88865,-234.70816 C -769.23206,-235.05731 -751.11386,-221.4286 -748.5449,-213.80191 C -754.81524,-214.12165 -762.84388,-214.67882 -765.6699,-213.55191 C -802.8254,-198.73559 -762.99446,-168.03631 -756.51365,-192.83316 C -759.85426,-202.54072 -768.13759,-187.00239 -773.9199,-189.58316 C -784.59841,-194.34922 -777.4162,-210.05506 -760.88865,-211.30191 C -747.58489,-212.31229 -735.84855,-199.13393 -747.8574,-175.11441 C -758.15198,-154.52367 -790.13714,-159.01398 -796.20115,-173.70816 C -819.03469,-183.16151 -794.66961,-159.46847 -781.82615,-161.05191 C -750.06119,-158.79146 -779.66437,-153.45808 -773.51365,-128.45816 C -769.18817,-110.93978 -736.92005,-127.56329 -756.20115,-139.30191 C -769.63097,-147.47818 -749.65335,-128.57546 -755.82615,-125.33316 C -781.21593,-111.99706 -774.68625,-154.63328 -757.2949,-160.52066 C -735.83068,-176.30837 -731.90726,-210.60774 -753.51365,-227.86441 C -769.5998,-238.63581 -736.46129,-236.31777 -725.6699,-239.02066 C -695.87876,-244.40262 -704.49867,-215.57499 -716.8574,-198.83316 C -722.44799,-191.25984 -738.67897,-151.89579 -723.45115,-124.23941 C -711.50526,-102.5436 -670.21783,-79.301865 -673.7324,-56.176915 C -676.17643,-40.095875 -680.89887,-39.776735 -651.9824,-53.114415 C -616.04505,-69.690475 -604.95886,-126.91449 -606.7949,-148.77066 C -609.14453,-176.74071 -620.14804,-202.80499 -640.4824,-217.98941 C -660.29715,-232.7858 -683.44466,-238.5069 -708.63865,-237.95816 C -715.92561,-245.34612 -670.19434,-247.76309 -660.32615,-251.64566 C -644.45681,-259.06055 -583.35854,-262.72213 -610.8574,-230.14566 C -628.6388,-241.08881 -628.66937,-240.46193 -611.38865,-226.77066 C -611.34844,-219.96931 -608.06507,-203.74024 -603.6074,-200.17691 C -606.85213,-198.63389 -599.09405,-176.41649 -597.38865,-166.77066 C -594.88272,-152.59697 -586.38873,-133.38956 -602.1074,-114.52066 C -619.10111,-83.313295 -583.60548,-63.187595 -618.51365,-52.708165 C -622.50474,-47.979965 -607.33539,-53.964705 -602.0449,-63.301915 C -601.04757,-43.723505 -617.3548,-40.756905 -604.01365,-29.551915 C -591.26618,-33.670745 -615.66541,-30.901045 -606.6074,-43.520665 C -589.04385,-69.712125 -619.89671,-91.563435 -596.38865,-120.70816 C -581.69878,-138.92032 -606.45822,-196.56987 -602.26365,-199.52066 C -592.00816,-194.39022 -596.58141,-209.25552 -602.20115,-201.98941 C -619.94122,-230.47081 -594.8629,-235.97076 -601.07615,-253.14566 C -606.30586,-267.6018 -624.11888,-260.05637 -602.70115,-265.70816 C -575.57435,-273.9133 -554.3053,-293.89042 -530.13865,-305.95816 C -509.79152,-297.86221 -534.08552,-306.40452 -521.8574,-310.70816 C -498.69744,-318.82331 -465.34763,-335.18963 -445.6074,-311.89566 C -422.77104,-289.16678 -448.61238,-250.70076 -482.6074,-252.39566 C -518.38004,-254.17918 -518.81905,-301.28934 -479.38865,-304.64566 C -449.72645,-307.17051 -446.95035,-267.74555 -478.0449,-273.52066 C -479.16773,-272.72635 -484.563,-267.43437 -473.20115,-269.86441 C -437.27852,-277.54744 -457.42244,-307.56585 -476.2949,-307.30191 C -510.80505,-306.81926 -531.77925,-263.40916 -491.8574,-251.80191 C -467.23151,-245.84636 -438.25284,-253.35449 -432.57615,-282.61441 C -429.92825,-309.37115 -443.28775,-329.87868 -477.95115,-333.98941 C -486.68529,-341.20443 -431.60554,-359.33908 -429.5449,-334.70816 C -423.50337,-314.31108 -413.52597,-339.23851 -430.8574,-344.70816 C -422.78034,-347.90442 -380.69801,-341.22951 -371.76365,-325.58316 C -389.05606,-311.11932 -410.5776,-306.94455 -412.95115,-266.73941 C -438.37004,-260.08073 -408.05337,-251.79086 -392.76365,-252.17691 C -365.59684,-252.86284 -342.42534,-267.08073 -349.4824,-295.33316 C -354.11631,-310.33652 -380.90429,-321.2095 -365.51365,-325.52066 C -341.61945,-309.47261 -319.75113,-290.48964 -296.76365,-273.30191 C -273.44802,-254.44678 -247.98218,-239.20386 -207.5449,-224.77066 C -186.74046,-217.34497 -155.41674,-228.44789 -161.4199,-196.86441 C -140.87983,-191.98784 -175.84989,-226.98853 -157.57615,-219.77066 C -129.26268,-221.84099 -135.47792,-200.09446 -135.9824,-181.36441 C -153.59949,-179.43203 -140.0325,-151.80832 -120.88865,-158.02066 C -104.19415,-142.77852 -74.27504,-168.91185 -79.2324,-188.64566 C -84.41577,-209.27926 -97.99036,-190.41771 -98.82615,-199.67691 C -108.13302,-201.58757 -155.32832,-217.80232 -132.07615,-220.67691 C -102.35479,-219.35201 -111.45176,-277.43305 -126.51365,-267.95816 C -113.67047,-256.54808 -107.15604,-229.00352 -132.5449,-222.33316 C -153.25385,-221.59112 -175.22848,-221.48851 -195.82615,-225.27066 C -220.51435,-231.1282 -240.10618,-240.44685 -265.1699,-253.27066 C -273.46169,-257.51314 -322.84154,-293.47124 -293.4199,-277.98941 C -274.2882,-268.08654 -235.65627,-249.76154 -227.0449,-280.36441 C -233.03759,-284.84192 -240.36432,-291.01192 -248.5449,-296.30191 C -248.77335,-293.24855 -251.30807,-290.83316 -254.4199,-290.83316 C -256.03592,-290.83316 -257.50891,-291.49962 -258.57615,-292.55191 C -260.08505,-291.10541 -262.13495,-290.20816 -264.38865,-290.20816 C -269.02441,-290.20816 -272.76365,-293.97863 -272.76365,-298.61441 C -272.76364,-301.63423 -271.18254,-304.28827 -268.7949,-305.77066 C -277.30083,-307.95715 -286.21397,-307.67784 -295.1699,-302.89566 C -317.2813,-291.20723 -331.47617,-309.13423 -347.57615,-321.67691 C -333.72451,-319.11793 -303.92499,-330.13106 -315.9199,-351.33316 C -329.01408,-364.19736 -328.32811,-342.06392 -323.70115,-349.67691 C -306.78113,-349.20441 -321.44938,-322.8966 -341.1699,-326.83316 C -365.75984,-331.74175 -377.06779,-345.17862 -404.82615,-351.23941 C -416.23247,-353.72988 -429.56372,-355.79931 -442.7324,-355.95816 z M -599.01365,-203.23941 C -596.70989,-203.19779 -595.42413,-197.58599 -601.4199,-200.89566 C -600.6553,-202.66037 -599.78157,-203.25328 -599.01365,-203.23941 z M -113.76365,-201.67691 C -106.65478,-201.85928 -101.64112,-196.92805 -97.1699,-195.95816 C -68.18233,-204.9687 -81.74275,-159.88659 -100.63865,-157.45816 C -103.28948,-155.67026 -113.79045,-152.88171 -120.7949,-159.77066 C -128.0672,-152.3739 -156.65722,-171.62476 -134.7949,-181.08316 C -133.11422,-191.1711 -130.08121,-193.69412 -124.9199,-197.39566 C -120.6685,-200.44464 -116.99495,-201.59402 -113.76365,-201.67691 z M -103.8574,-182.23941 C -108.39586,-182.21045 -112.32478,-181.32257 -102.01365,-179.70816 C -94.17098,-181.4384 -99.31894,-182.26837 -103.8574,-182.23941 z M -112.13865,-180.27066 C -113.98547,-180.38047 -113.46652,-178.04747 -106.51365,-171.61441 L -103.9199,-170.70816 L -101.88865,-171.39566 C -103.47321,-175.98119 -109.76417,-180.12948 -112.13865,-180.27066 z M -116.9824,-176.70816 C -117.99981,-176.7163 -117.6595,-174.85639 -113.82615,-169.45816 L -112.88865,-168.30191 C -105.885,-167.74488 -114.74411,-176.69025 -116.9824,-176.70816 z "
       style="fill:#89a02c" />
  </g>
</svg>
