<?xml version="1.0" encoding="UTF-8" standalone="no"?>
<svg
   xmlns:dc="http://purl.org/dc/elements/1.1/"
   xmlns:cc="http://creativecommons.org/ns#"
   xmlns:rdf="http://www.w3.org/1999/02/22-rdf-syntax-ns#"
   xmlns:svg="http://www.w3.org/2000/svg"
   xmlns="http://www.w3.org/2000/svg"
   id="svg4629"
   version="1.1"
   viewBox="0 0 39.687499 39.687501"
   height="150"
   width="150">
  <defs
     id="defs4623" />
  <metadata
     id="metadata4626">
    <rdf:RDF>
      <cc:Work
         rdf:about="">
        <dc:format>image/svg+xml</dc:format>
        <dc:type
           rdf:resource="http://purl.org/dc/dcmitype/StillImage" />
        <dc:title></dc:title>
      </cc:Work>
    </rdf:RDF>
  </metadata>
  <g
     transform="translate(0,-257.31248)"
     id="layer1">
    <g
       style="fill:#eb9999;fill-opacity:1"
       id="g4"
       transform="matrix(0.06741434,0.06741366,-0.06741434,0.06741366,16.514424,248.45891)">
      <path
         style="fill:#eb9999;fill-opacity:1"
         id="path2"
         d="m 379.577,247.395 c -14.944,-18.75 -31.833,-28.12 -50.679,-28.12 V 73.092 c 9.896,0 18.47,-3.616 25.693,-10.848 7.238,-7.233 10.858,-15.802 10.858,-25.697 0,-9.9 -3.62,-18.464 -10.858,-25.697 C 347.368,3.617 338.795,0 328.898,0 H 146.179 c -9.9,0 -18.464,3.617 -25.697,10.85 -7.234,7.233 -10.85,15.796 -10.85,25.697 0,9.899 3.616,18.464 10.85,25.697 7.233,7.232 15.8,10.848 25.697,10.848 v 146.179 c -18.844,0 -35.734,9.374 -50.677,28.123 -14.941,18.75 -22.414,39.824 -22.414,63.242 0,4.948 1.809,9.232 5.426,12.847 3.619,3.613 7.901,5.421 12.85,5.421 h 115.344 l 21.698,138.474 c 0.95,5.141 3.996,7.707 9.135,7.707 h 0.291 c 2.274,0 4.235,-0.808 5.851,-2.423 1.615,-1.619 2.614,-3.572 2.994,-5.855 l 14.558,-137.902 h 122.482 c 4.948,0 9.236,-1.808 12.847,-5.421 3.621,-3.614 5.432,-7.898 5.432,-12.847 0.003,-23.415 -7.477,-44.492 -22.419,-63.242 z M 210.132,210.14 c 0,2.662 -0.855,4.849 -2.57,6.565 -1.713,1.714 -3.903,2.57 -6.567,2.57 -2.662,0 -4.853,-0.855 -6.567,-2.57 -1.713,-1.713 -2.568,-3.903 -2.568,-6.565 V 82.233 c 0,-2.664 0.855,-4.858 2.568,-6.567 1.714,-1.711 3.905,-2.568 6.567,-2.568 2.664,0 4.854,0.854 6.567,2.568 1.714,1.712 2.57,3.903 2.57,6.567 z" />
    </g>
  </g>
</svg>
